<?xml version="1.0" encoding="iso-8859-1"?>
<!-- Uploaded to: SVG Repo, www.svgrepo.com, Generator: SVG Repo Mixer Tools -->
<svg height="16px" width="16px" version="1.1" id="Layer_1" xmlns="http://www.w3.org/2000/svg" xmlns:xlink="http://www.w3.org/1999/xlink"
	 viewBox="0 0 512 512" xml:space="preserve">
<circle style="fill:#F4E3C3;" cx="256" cy="256" r="256"/>
<path style="fill:#FED8B2;" d="M507.975,301.456L379.156,172.635l-7.308,4.112l-59.656-59.656l-118.251,96.385l-74.862,258.855l0,0
	C158.677,497.447,205.638,512,256,512C381.871,512,486.524,421.155,507.975,301.456z"/>
<polygon style="fill:#31BAFD;" points="268.729,201.39 283.107,146.177 338.32,131.801 379.156,172.637 364.778,227.849 
	309.567,242.226 "/>
<polygon style="fill:#2B9ED8;" points="359.548,153.029 289.664,222.325 309.567,242.226 364.778,227.849 379.156,172.637 "/>
<path style="fill:#324A5E;" d="M314.19,278.437l-81.672-81.672l79.674-79.674c-37.702-9.709-79.407,0.172-108.93,29.696
	c-29.774,29.774-39.564,71.937-29.436,109.889L38.867,391.637c20.361,32.525,47.816,60.147,80.212,80.694L254.28,337.13
	c37.954,10.128,80.115,0.336,109.89-29.437c29.522-29.522,39.403-71.227,29.696-108.93L314.19,278.437z"/>
<path style="fill:#2B3B4E;" d="M393.864,198.763l-79.674,79.674l-40.386-40.386L74.088,436.091
	c13.555,13.695,28.643,25.871,44.99,36.24L254.28,337.13c37.954,10.128,80.115,0.336,109.89-29.437
	C393.692,278.169,403.573,236.465,393.864,198.763z"/>
<path style="fill:#415B6D;" d="M65.214,426.674c6.328,7.07,13.043,13.784,20.113,20.113l137.645-137.645
	c5.554-5.554,5.554-14.558,0-20.113l0,0c-5.554-5.554-14.558-5.554-20.113,0L65.214,426.674z"/>
<path style="fill:#324A5E;" d="M222.67,288.756L74.093,436.084c3.639,3.675,7.378,7.252,11.233,10.702l137.645-137.645
	c5.554-5.554,5.554-14.56,0-20.113C222.875,288.932,222.77,288.849,222.67,288.756z"/>
</svg>